<svg width="36" height="36" viewBox="0 0 36 36" fill="none" xmlns="http://www.w3.org/2000/svg">
<path d="M14.75 14.83C14.75 13.49 13.84 13.49 13.84 13.49H10.09V16.36H13.61C14.22 16.36 14.75 16.17 14.75 14.82V14.83Z" fill="black"/>
<path d="M23.44 16.37C21.45 16.37 21.17 18.36 21.17 18.36H25.4C25.4 18.36 25.43 16.37 23.43 16.37H23.44Z" fill="black"/>
<path d="M13.84 18.35H10.09V21.79H13.41C13.47 21.79 13.55 21.79 13.65 21.79C14.18 21.78 15.2 21.62 15.2 20.12C15.2 18.33 13.84 18.35 13.84 18.35Z" fill="black"/>
<path d="M17.52 0.25C7.87002 0.25 0.0200195 8.1 0.0200195 17.75C0.0200195 27.4 7.87002 35.25 17.52 35.25C27.17 35.25 35.02 27.4 35.02 17.75C35.02 8.1 27.17 0.25 17.52 0.25ZM20.62 11.96H25.93V13.55H20.62V11.96ZM17.93 20.28C17.93 24.21 13.84 24.08 13.84 24.08H7.14002V11.2H13.84C15.88 11.2 17.49 12.33 17.49 14.63C17.49 16.93 15.52 17.08 15.52 17.08C18.11 17.08 17.93 20.28 17.93 20.28ZM27.87 20.07H21.19C21.19 22.46 23.46 22.31 23.46 22.31C25.6 22.31 25.53 20.92 25.53 20.92H27.8C27.8 24.6 23.39 24.35 23.39 24.35C18.1 24.35 18.44 19.43 18.44 19.43C18.44 19.43 18.44 14.48 23.39 14.48C28.6 14.48 27.87 20.07 27.87 20.07Z" fill="black"/>
</svg>
